<?xml version="1.0" encoding="UTF-8"?>
<svg xmlns="http://www.w3.org/2000/svg" width="1280" height="720" viewBox="0 0 1280 720">
  <rect x="0" y="0" width="1280" height="720" fill="#F7FAFD"/>
  <rect x="0" y="0" width="1280" height="6" fill="#097FCB"/>
  <rect x="0" y="0" width="320" height="720" fill="#F3F8FD"/>

  <rect x="42" y="200" width="18" height="42" rx="6" fill="#097FCB"/>
  <rect x="42" y="250" width="18" height="42" rx="6" fill="#5B9BD5"/>
  <rect x="42" y="300" width="18" height="42" rx="6" fill="#8DCFFA"/>
  <rect x="42" y="350" width="18" height="42" rx="6" fill="#E5F1FA"/>

  <text x="92" y="246" font-family="Arial, sans-serif" font-size="18" fill="#6B7280">CHAPTER</text>
  <text x="92" y="316" font-family="Arial, sans-serif" font-size="88" font-weight="bold" fill="#097FCB">{{CHAPTER_NUM}}</text>
  <text x="92" y="370" font-family="Microsoft YaHei, Arial, sans-serif" font-size="16" fill="#5B6B7F">中国移动技术调研章节页</text>

  <rect x="380" y="138" width="820" height="430" rx="24" fill="#FFFFFF" stroke="#D9E2EC" stroke-width="2"/>
  <rect x="380" y="138" width="820" height="72" rx="24" fill="#1565C0"/>
  <text x="420" y="184" font-family="Microsoft YaHei, Arial, sans-serif" font-size="18" fill="#DFF1FF">章节导引</text>

  <text x="420" y="300" font-family="Microsoft YaHei, SimHei, sans-serif" font-size="46" font-weight="bold" fill="#1F2937">{{CHAPTER_TITLE}}</text>
  <text x="420" y="352" font-family="Arial, sans-serif" font-size="22" fill="#1E59B7">{{CHAPTER_SUBTITLE}}</text>
  <line x1="420" y1="382" x2="700" y2="382" stroke="#097FCB" stroke-width="4"/>

  <text x="420" y="456" font-family="Microsoft YaHei, Arial, sans-serif" font-size="20" fill="#1F2937">{{CHAPTER_SUMMARY}}</text>

  <rect x="420" y="488" width="318" height="44" rx="10" fill="#EAF4FB"/>
  <text x="444" y="516" font-family="Microsoft YaHei, Arial, sans-serif" font-size="16" fill="#1565C0">建议每章正文前插入目录式章节页</text>

  <text x="1216" y="686" text-anchor="end" font-family="Arial, sans-serif" font-size="12" fill="#6B7280">CH-{{CHAPTER_NUM}}</text>
</svg>
