<?xml version="1.0" encoding="UTF-8"?>
<svg xmlns="http://www.w3.org/2000/svg" viewBox="0 0 1280 720">
  <rect x="0" y="0" width="1280" height="720" fill="#FFFFFF"/>
  <rect x="0" y="0" width="1280" height="6" fill="#097FCB"/>

  <rect x="0" y="0" width="86" height="720" fill="#FFFFFF"/>
  <rect x="-105.94" y="206.76" width="58.33" height="42.54" fill="#097FCB"/>
  <rect x="-105.94" y="255.56" width="58.33" height="42.54" fill="#5B9BD5"/>
  <rect x="-105.94" y="304.37" width="58.33" height="42.54" fill="#8DCFFA"/>
  <rect x="-105.94" y="353.18" width="58.33" height="42.54" fill="#E5F1FA"/>

  <rect x="75.41" y="33.72" width="814.07" height="36.24" rx="6" fill="#F4F8FC"/>
  <text x="88" y="57" font-family="Microsoft YaHei, Arial, sans-serif" font-size="14" fill="#5B6B7F">{{CHAPTER_LABEL}}</text>

  <text x="75.41" y="106" font-family="Microsoft YaHei, SimHei, sans-serif" font-size="28" font-weight="bold" fill="#1A1A1A">{{PAGE_TITLE}}</text>
  <text x="1216" y="58" text-anchor="end" font-family="Microsoft YaHei, Arial, sans-serif" font-size="12" fill="#718096">{{ORG_SHORT}}</text>

  <rect x="75.41" y="126" width="1144.59" height="58" rx="10" fill="#1565C0"/>
  <text x="99" y="162" font-family="Microsoft YaHei, Arial, sans-serif" font-size="18" fill="#FFFFFF">{{PAGE_SUMMARY}}</text>

  <rect x="75.41" y="206" width="250" height="432" rx="14" fill="#F7FAFD" stroke="#D9E2EC" stroke-dasharray="8 6"/>
  <text x="102" y="238" font-family="Microsoft YaHei, Arial, sans-serif" font-size="15" fill="#1565C0">观察 / 结论 / 侧栏</text>
  <text x="102" y="274" font-family="Microsoft YaHei, Arial, sans-serif" font-size="16" fill="#1F2937">{{SIDEBAR_CONTENT}}</text>

  <rect x="347" y="206" width="873" height="432" rx="14" fill="#FFFFFF" stroke="#D9E2EC" stroke-width="2" stroke-dasharray="8 6"/>
  <text x="783.5" y="420" text-anchor="middle" font-family="Microsoft YaHei, Arial, sans-serif" font-size="18" fill="#CBD5E1">{{CONTENT_AREA}}</text>
  <text x="783.5" y="448" text-anchor="middle" font-family="Microsoft YaHei, Arial, sans-serif" font-size="14" fill="#CBD5E1">适用于证据拼接 / 对比 / 架构 / 指标 / 案例网格</text>

  <text x="1216" y="690" text-anchor="end" font-family="Arial, sans-serif" font-size="12" fill="#718096">{{PAGE_NUM}}</text>
</svg>
