<?xml version="1.0" encoding="UTF-8"?>
<svg xmlns="http://www.w3.org/2000/svg" viewBox="0 0 1280 720">
  <rect x="0" y="0" width="1280" height="720" fill="#FFFFFF"/>
  <rect x="0" y="0" width="1280" height="6" fill="#097FCB"/>
  <text x="75.41" y="106" font-family="Microsoft YaHei, Arial, sans-serif" font-size="28" font-weight="bold" fill="#1A1A1A">{{PAGE_TITLE}}</text>
  <rect x="75.41" y="126" width="1144.59" height="58" rx="10" fill="#1565C0"/>
  <text x="99" y="162" font-family="Microsoft YaHei, Arial, sans-serif" font-size="18" fill="#FFFFFF">{{PAGE_SUMMARY}}</text>
  <rect x="75.41" y="208" width="1144.59" height="60" rx="12" fill="#EAF4FB"/>
  <text x="103" y="246" font-family="Microsoft YaHei, Arial, sans-serif" font-size="17" fill="#1565C0">{{OBSERVATION_BAR}}</text>
  <rect x="75.41" y="290" width="264" height="160" rx="14" fill="#FFFFFF" stroke="#D9E2EC" stroke-dasharray="8 6"/>
  <rect x="357" y="290" width="264" height="160" rx="14" fill="#FFFFFF" stroke="#D9E2EC" stroke-dasharray="8 6"/>
  <rect x="638.59" y="290" width="264" height="160" rx="14" fill="#FFFFFF" stroke="#D9E2EC" stroke-dasharray="8 6"/>
  <rect x="920.18" y="290" width="299.82" height="160" rx="14" fill="#FFFFFF" stroke="#D9E2EC" stroke-dasharray="8 6"/>
  <rect x="75.41" y="470" width="264" height="160" rx="14" fill="#FFFFFF" stroke="#D9E2EC" stroke-dasharray="8 6"/>
  <rect x="357" y="470" width="264" height="160" rx="14" fill="#FFFFFF" stroke="#D9E2EC" stroke-dasharray="8 6"/>
  <rect x="638.59" y="470" width="264" height="160" rx="14" fill="#FFFFFF" stroke="#D9E2EC" stroke-dasharray="8 6"/>
  <rect x="920.18" y="470" width="299.82" height="160" rx="14" fill="#1565C0"/>
  <text x="207.41" y="374" text-anchor="middle" font-family="Microsoft YaHei, Arial, sans-serif" font-size="14" fill="#CBD5E1">{{CASE_1}}</text>
  <text x="489" y="374" text-anchor="middle" font-family="Microsoft YaHei, Arial, sans-serif" font-size="14" fill="#CBD5E1">{{CASE_2}}</text>
  <text x="770.59" y="374" text-anchor="middle" font-family="Microsoft YaHei, Arial, sans-serif" font-size="14" fill="#CBD5E1">{{CASE_3}}</text>
  <text x="1070.09" y="374" text-anchor="middle" font-family="Microsoft YaHei, Arial, sans-serif" font-size="14" fill="#CBD5E1">{{CASE_4}}</text>
  <text x="207.41" y="554" text-anchor="middle" font-family="Microsoft YaHei, Arial, sans-serif" font-size="14" fill="#CBD5E1">{{CASE_5}}</text>
  <text x="489" y="554" text-anchor="middle" font-family="Microsoft YaHei, Arial, sans-serif" font-size="14" fill="#CBD5E1">{{CASE_6}}</text>
  <text x="770.59" y="554" text-anchor="middle" font-family="Microsoft YaHei, Arial, sans-serif" font-size="14" fill="#CBD5E1">{{CASE_7}}</text>
  <text x="1070.09" y="548" text-anchor="middle" font-family="Microsoft YaHei, Arial, sans-serif" font-size="15" fill="#FFFFFF">{{FINAL_JUDGMENT}}</text>
</svg>
